<svg width="243" height="11" viewBox="0 0 243 11" fill="none" xmlns="http://www.w3.org/2000/svg">
<g id="Group 1171287537">
<path id="Union" fill-rule="evenodd" clip-rule="evenodd" d="M235.796 0.339747C236.481 -0.117282 237.448 -0.117286 238.134 0.364447C239.052 1.01911 239.003 2.29138 238.06 2.89664C237.754 3.09427 237.375 3.20544 236.959 3.20544C236.787 3.20544 236.628 3.18073 236.469 3.14368C236.774 3.60413 237.207 3.94999 237.7 4.20292C238.163 3.41522 239.02 2.88656 240 2.88656C241.473 2.88656 242.667 4.08046 242.667 5.55322C242.667 7.02598 241.473 8.21989 240 8.21989C238.822 8.21989 237.822 7.45608 237.469 6.3967C237.073 6.6347 236.726 6.94082 236.469 7.32796C236.628 7.2909 236.787 7.2662 236.959 7.2662C237.375 7.2662 237.754 7.37737 238.06 7.575C239.003 8.18025 239.052 9.45253 238.134 10.1072C237.448 10.5889 236.481 10.5889 235.796 10.1319V10.1442C234.841 9.50194 234.841 8.31613 235.294 7.36502C235.534 6.87423 235.909 6.4171 236.402 6.05322L0 6.0532L8.63602e-08 5.0532L237.38 5.05322C237.386 5.02016 237.393 4.98731 237.401 4.95469C236.401 4.58449 235.676 3.88825 235.294 3.10662C234.841 2.15551 234.841 0.969703 235.796 0.327392V0.339747Z" fill="url(#paint0_linear_413_65822)"/>
</g>
<defs>
<linearGradient id="paint0_linear_413_65822" x1="242.667" y1="3.29107e-07" x2="242.303" y2="15.9849" gradientUnits="userSpaceOnUse">
<stop stop-color="#C8C6C6"/>
<stop offset="0.535" stop-color="#F1F0F0"/>
<stop offset="1" stop-color="#C8C6C6"/>
</linearGradient>
</defs>
</svg>
