<svg width="14" height="14" viewBox="0 0 14 14" fill="none" xmlns="http://www.w3.org/2000/svg">
<path fill-rule="evenodd" clip-rule="evenodd" d="M3.55353 13.0343V4.89114H0.846891V13.0343H3.55353ZM2.2002 3.77933C3.14406 3.77933 3.73154 3.15402 3.73154 2.37257C3.71395 1.57353 3.14406 0.965576 2.21811 0.965576C1.29224 0.965576 0.68689 1.57353 0.68689 2.37257C0.68689 3.15402 1.27424 3.77933 2.18256 3.77933H2.2002Z" fill="white"/>
<path fill-rule="evenodd" clip-rule="evenodd" d="M5.05121 13.0343H7.75782V8.48683C7.75782 8.24346 7.77541 8.00032 7.84688 7.82634C8.04255 7.34008 8.4879 6.83646 9.23562 6.83646C10.215 6.83646 10.6068 7.58321 10.6068 8.67792V13.0343H13.3132V8.36514C13.3132 5.86392 11.9779 4.70006 10.1971 4.70006C8.73699 4.70006 8.09597 5.51621 7.73982 6.07212H7.7579V4.89114H5.05128C5.0868 5.65525 5.05121 13.0343 5.05121 13.0343Z" fill="white"/>
</svg>
