<svg width="16" height="20" viewBox="0 0 16 20" fill="none" xmlns="http://www.w3.org/2000/svg">
  <path d="M2.23548 6.5H10.9277V4.5C10.9277 3.66667 10.6361 2.95833 10.0527 2.375C9.4694 1.79167 8.76107 1.5 7.92773 1.5C7.0944 1.5 6.38607 1.79167 5.80273 2.375C5.2194 2.95833 4.92773 3.66667 4.92773 4.5H3.42773C3.42773 3.25133 3.86557 2.18917 4.74123 1.3135C5.6169 0.437833 6.67907 0 7.92773 0C9.1764 0 10.2386 0.437833 11.1142 1.3135C11.9899 2.18917 12.4277 3.25133 12.4277 4.5V6.5H13.62C14.1187 6.5 14.5447 6.67658 14.898 7.02975C15.2512 7.38308 15.4277 7.80908 15.4277 8.30775V17.6923C15.4277 18.1909 15.2512 18.6169 14.898 18.9703C14.5447 19.3234 14.1187 19.5 13.62 19.5H2.23548C1.73682 19.5 1.31082 19.3234 0.957484 18.9703C0.604318 18.6169 0.427734 18.1909 0.427734 17.6923V8.30775C0.427734 7.80908 0.604318 7.38308 0.957484 7.02975C1.31082 6.67658 1.73682 6.5 2.23548 6.5ZM2.23548 18H13.62C13.7098 18 13.7836 17.9712 13.8412 17.9135C13.8989 17.8558 13.9277 17.7821 13.9277 17.6923V8.30775C13.9277 8.21792 13.8989 8.14417 13.8412 8.0865C13.7836 8.02883 13.7098 8 13.62 8H2.23548C2.14565 8 2.0719 8.02883 2.01423 8.0865C1.95657 8.14417 1.92773 8.21792 1.92773 8.30775V17.6923C1.92773 17.7821 1.95657 17.8558 2.01423 17.9135C2.0719 17.9712 2.14565 18 2.23548 18ZM7.92773 14.75C8.41357 14.75 8.82674 14.5798 9.16724 14.2395C9.50757 13.899 9.67773 13.4858 9.67773 13C9.67773 12.5142 9.50757 12.101 9.16724 11.7605C8.82674 11.4202 8.41357 11.25 7.92773 11.25C7.4419 11.25 7.02873 11.4202 6.68823 11.7605C6.3479 12.101 6.17773 12.5142 6.17773 13C6.17773 13.4858 6.3479 13.899 6.68823 14.2395C7.02873 14.5798 7.4419 14.75 7.92773 14.75Z" fill="white"/>
</svg>
