<?xml version="1.0" encoding="utf-8" ?>
<svg baseProfile="full" height="270" version="1.1" width="270" xmlns="http://www.w3.org/2000/svg" xmlns:ev="http://www.w3.org/2001/xml-events" xmlns:xlink="http://www.w3.org/1999/xlink"><defs /><rect fill="black" height="10" width="10" x="10" y="10" /><rect fill="black" height="10" width="10" x="20" y="10" /><rect fill="black" height="10" width="10" x="30" y="10" /><rect fill="black" height="10" width="10" x="40" y="10" /><rect fill="black" height="10" width="10" x="50" y="10" /><rect fill="black" height="10" width="10" x="60" y="10" /><rect fill="black" height="10" width="10" x="70" y="10" /><rect fill="black" height="10" width="10" x="110" y="10" /><rect fill="black" height="10" width="10" x="130" y="10" /><rect fill="black" height="10" width="10" x="150" y="10" /><rect fill="black" height="10" width="10" x="190" y="10" /><rect fill="black" height="10" width="10" x="200" y="10" /><rect fill="black" height="10" width="10" x="210" y="10" /><rect fill="black" height="10" width="10" x="220" y="10" /><rect fill="black" height="10" width="10" x="230" y="10" /><rect fill="black" height="10" width="10" x="240" y="10" /><rect fill="black" height="10" width="10" x="250" y="10" /><rect fill="black" height="10" width="10" x="10" y="20" /><rect fill="black" height="10" width="10" x="70" y="20" /><rect fill="black" height="10" width="10" x="90" y="20" /><rect fill="black" height="10" width="10" x="100" y="20" /><rect fill="black" height="10" width="10" x="110" y="20" /><rect fill="black" height="10" width="10" x="140" y="20" /><rect fill="black" height="10" width="10" x="150" y="20" /><rect fill="black" height="10" width="10" x="170" y="20" /><rect fill="black" height="10" width="10" x="190" y="20" /><rect fill="black" height="10" width="10" x="250" y="20" /><rect fill="black" height="10" width="10" x="10" y="30" /><rect fill="black" height="10" width="10" x="30" y="30" /><rect fill="black" height="10" width="10" x="40" y="30" /><rect fill="black" height="10" width="10" x="50" y="30" /><rect fill="black" height="10" width="10" x="70" y="30" /><rect fill="black" height="10" width="10" x="90" y="30" /><rect fill="black" height="10" width="10" x="100" y="30" /><rect fill="black" height="10" width="10" x="120" y="30" /><rect fill="black" height="10" width="10" x="150" y="30" /><rect fill="black" height="10" width="10" x="190" y="30" /><rect fill="black" height="10" width="10" x="210" y="30" /><rect fill="black" height="10" width="10" x="220" y="30" /><rect fill="black" height="10" width="10" x="230" y="30" /><rect fill="black" height="10" width="10" x="250" y="30" /><rect fill="black" height="10" width="10" x="10" y="40" /><rect fill="black" height="10" width="10" x="30" y="40" /><rect fill="black" height="10" width="10" x="40" y="40" /><rect fill="black" height="10" width="10" x="50" y="40" /><rect fill="black" height="10" width="10" x="70" y="40" /><rect fill="black" height="10" width="10" x="90" y="40" /><rect fill="black" height="10" width="10" x="100" y="40" /><rect fill="black" height="10" width="10" x="110" y="40" /><rect fill="black" height="10" width="10" x="140" y="40" /><rect fill="black" height="10" width="10" x="170" y="40" /><rect fill="black" height="10" width="10" x="190" y="40" /><rect fill="black" height="10" width="10" x="210" y="40" /><rect fill="black" height="10" width="10" x="220" y="40" /><rect fill="black" height="10" width="10" x="230" y="40" /><rect fill="black" height="10" width="10" x="250" y="40" /><rect fill="black" height="10" width="10" x="10" y="50" /><rect fill="black" height="10" width="10" x="30" y="50" /><rect fill="black" height="10" width="10" x="40" y="50" /><rect fill="black" height="10" width="10" x="50" y="50" /><rect fill="black" height="10" width="10" x="70" y="50" /><rect fill="black" height="10" width="10" x="100" y="50" /><rect fill="black" height="10" width="10" x="110" y="50" /><rect fill="black" height="10" width="10" x="140" y="50" /><rect fill="black" height="10" width="10" x="170" y="50" /><rect fill="black" height="10" width="10" x="190" y="50" /><rect fill="black" height="10" width="10" x="210" y="50" /><rect fill="black" height="10" width="10" x="220" y="50" /><rect fill="black" height="10" width="10" x="230" y="50" /><rect fill="black" height="10" width="10" x="250" y="50" /><rect fill="black" height="10" width="10" x="10" y="60" /><rect fill="black" height="10" width="10" x="70" y="60" /><rect fill="black" height="10" width="10" x="100" y="60" /><rect fill="black" height="10" width="10" x="120" y="60" /><rect fill="black" height="10" width="10" x="150" y="60" /><rect fill="black" height="10" width="10" x="190" y="60" /><rect fill="black" height="10" width="10" x="250" y="60" /><rect fill="black" height="10" width="10" x="10" y="70" /><rect fill="black" height="10" width="10" x="20" y="70" /><rect fill="black" height="10" width="10" x="30" y="70" /><rect fill="black" height="10" width="10" x="40" y="70" /><rect fill="black" height="10" width="10" x="50" y="70" /><rect fill="black" height="10" width="10" x="60" y="70" /><rect fill="black" height="10" width="10" x="70" y="70" /><rect fill="black" height="10" width="10" x="90" y="70" /><rect fill="black" height="10" width="10" x="110" y="70" /><rect fill="black" height="10" width="10" x="130" y="70" /><rect fill="black" height="10" width="10" x="150" y="70" /><rect fill="black" height="10" width="10" x="170" y="70" /><rect fill="black" height="10" width="10" x="190" y="70" /><rect fill="black" height="10" width="10" x="200" y="70" /><rect fill="black" height="10" width="10" x="210" y="70" /><rect fill="black" height="10" width="10" x="220" y="70" /><rect fill="black" height="10" width="10" x="230" y="70" /><rect fill="black" height="10" width="10" x="240" y="70" /><rect fill="black" height="10" width="10" x="250" y="70" /><rect fill="black" height="10" width="10" x="90" y="80" /><rect fill="black" height="10" width="10" x="100" y="80" /><rect fill="black" height="10" width="10" x="150" y="80" /><rect fill="black" height="10" width="10" x="160" y="80" /><rect fill="black" height="10" width="10" x="170" y="80" /><rect fill="black" height="10" width="10" x="10" y="90" /><rect fill="black" height="10" width="10" x="70" y="90" /><rect fill="black" height="10" width="10" x="90" y="90" /><rect fill="black" height="10" width="10" x="130" y="90" /><rect fill="black" height="10" width="10" x="180" y="90" /><rect fill="black" height="10" width="10" x="190" y="90" /><rect fill="black" height="10" width="10" x="220" y="90" /><rect fill="black" height="10" width="10" x="230" y="90" /><rect fill="black" height="10" width="10" x="240" y="90" /><rect fill="black" height="10" width="10" x="20" y="100" /><rect fill="black" height="10" width="10" x="30" y="100" /><rect fill="black" height="10" width="10" x="40" y="100" /><rect fill="black" height="10" width="10" x="60" y="100" /><rect fill="black" height="10" width="10" x="100" y="100" /><rect fill="black" height="10" width="10" x="120" y="100" /><rect fill="black" height="10" width="10" x="140" y="100" /><rect fill="black" height="10" width="10" x="150" y="100" /><rect fill="black" height="10" width="10" x="160" y="100" /><rect fill="black" height="10" width="10" x="170" y="100" /><rect fill="black" height="10" width="10" x="180" y="100" /><rect fill="black" height="10" width="10" x="200" y="100" /><rect fill="black" height="10" width="10" x="210" y="100" /><rect fill="black" height="10" width="10" x="220" y="100" /><rect fill="black" height="10" width="10" x="230" y="100" /><rect fill="black" height="10" width="10" x="240" y="100" /><rect fill="black" height="10" width="10" x="10" y="110" /><rect fill="black" height="10" width="10" x="20" y="110" /><rect fill="black" height="10" width="10" x="30" y="110" /><rect fill="black" height="10" width="10" x="40" y="110" /><rect fill="black" height="10" width="10" x="50" y="110" /><rect fill="black" height="10" width="10" x="70" y="110" /><rect fill="black" height="10" width="10" x="90" y="110" /><rect fill="black" height="10" width="10" x="100" y="110" /><rect fill="black" height="10" width="10" x="140" y="110" /><rect fill="black" height="10" width="10" x="150" y="110" /><rect fill="black" height="10" width="10" x="160" y="110" /><rect fill="black" height="10" width="10" x="170" y="110" /><rect fill="black" height="10" width="10" x="200" y="110" /><rect fill="black" height="10" width="10" x="220" y="110" /><rect fill="black" height="10" width="10" x="240" y="110" /><rect fill="black" height="10" width="10" x="250" y="110" /><rect fill="black" height="10" width="10" x="10" y="120" /><rect fill="black" height="10" width="10" x="20" y="120" /><rect fill="black" height="10" width="10" x="50" y="120" /><rect fill="black" height="10" width="10" x="60" y="120" /><rect fill="black" height="10" width="10" x="90" y="120" /><rect fill="black" height="10" width="10" x="100" y="120" /><rect fill="black" height="10" width="10" x="110" y="120" /><rect fill="black" height="10" width="10" x="120" y="120" /><rect fill="black" height="10" width="10" x="140" y="120" /><rect fill="black" height="10" width="10" x="170" y="120" /><rect fill="black" height="10" width="10" x="190" y="120" /><rect fill="black" height="10" width="10" x="200" y="120" /><rect fill="black" height="10" width="10" x="220" y="120" /><rect fill="black" height="10" width="10" x="250" y="120" /><rect fill="black" height="10" width="10" x="40" y="130" /><rect fill="black" height="10" width="10" x="50" y="130" /><rect fill="black" height="10" width="10" x="60" y="130" /><rect fill="black" height="10" width="10" x="70" y="130" /><rect fill="black" height="10" width="10" x="80" y="130" /><rect fill="black" height="10" width="10" x="90" y="130" /><rect fill="black" height="10" width="10" x="110" y="130" /><rect fill="black" height="10" width="10" x="130" y="130" /><rect fill="black" height="10" width="10" x="140" y="130" /><rect fill="black" height="10" width="10" x="160" y="130" /><rect fill="black" height="10" width="10" x="170" y="130" /><rect fill="black" height="10" width="10" x="190" y="130" /><rect fill="black" height="10" width="10" x="200" y="130" /><rect fill="black" height="10" width="10" x="250" y="130" /><rect fill="black" height="10" width="10" x="10" y="140" /><rect fill="black" height="10" width="10" x="20" y="140" /><rect fill="black" height="10" width="10" x="30" y="140" /><rect fill="black" height="10" width="10" x="50" y="140" /><rect fill="black" height="10" width="10" x="90" y="140" /><rect fill="black" height="10" width="10" x="100" y="140" /><rect fill="black" height="10" width="10" x="110" y="140" /><rect fill="black" height="10" width="10" x="160" y="140" /><rect fill="black" height="10" width="10" x="170" y="140" /><rect fill="black" height="10" width="10" x="200" y="140" /><rect fill="black" height="10" width="10" x="240" y="140" /><rect fill="black" height="10" width="10" x="10" y="150" /><rect fill="black" height="10" width="10" x="70" y="150" /><rect fill="black" height="10" width="10" x="80" y="150" /><rect fill="black" height="10" width="10" x="110" y="150" /><rect fill="black" height="10" width="10" x="120" y="150" /><rect fill="black" height="10" width="10" x="130" y="150" /><rect fill="black" height="10" width="10" x="160" y="150" /><rect fill="black" height="10" width="10" x="190" y="150" /><rect fill="black" height="10" width="10" x="200" y="150" /><rect fill="black" height="10" width="10" x="210" y="150" /><rect fill="black" height="10" width="10" x="220" y="150" /><rect fill="black" height="10" width="10" x="240" y="150" /><rect fill="black" height="10" width="10" x="250" y="150" /><rect fill="black" height="10" width="10" x="10" y="160" /><rect fill="black" height="10" width="10" x="30" y="160" /><rect fill="black" height="10" width="10" x="50" y="160" /><rect fill="black" height="10" width="10" x="80" y="160" /><rect fill="black" height="10" width="10" x="90" y="160" /><rect fill="black" height="10" width="10" x="100" y="160" /><rect fill="black" height="10" width="10" x="110" y="160" /><rect fill="black" height="10" width="10" x="120" y="160" /><rect fill="black" height="10" width="10" x="180" y="160" /><rect fill="black" height="10" width="10" x="190" y="160" /><rect fill="black" height="10" width="10" x="200" y="160" /><rect fill="black" height="10" width="10" x="220" y="160" /><rect fill="black" height="10" width="10" x="230" y="160" /><rect fill="black" height="10" width="10" x="250" y="160" /><rect fill="black" height="10" width="10" x="10" y="170" /><rect fill="black" height="10" width="10" x="30" y="170" /><rect fill="black" height="10" width="10" x="60" y="170" /><rect fill="black" height="10" width="10" x="70" y="170" /><rect fill="black" height="10" width="10" x="90" y="170" /><rect fill="black" height="10" width="10" x="100" y="170" /><rect fill="black" height="10" width="10" x="110" y="170" /><rect fill="black" height="10" width="10" x="120" y="170" /><rect fill="black" height="10" width="10" x="170" y="170" /><rect fill="black" height="10" width="10" x="180" y="170" /><rect fill="black" height="10" width="10" x="190" y="170" /><rect fill="black" height="10" width="10" x="200" y="170" /><rect fill="black" height="10" width="10" x="210" y="170" /><rect fill="black" height="10" width="10" x="230" y="170" /><rect fill="black" height="10" width="10" x="90" y="180" /><rect fill="black" height="10" width="10" x="130" y="180" /><rect fill="black" height="10" width="10" x="140" y="180" /><rect fill="black" height="10" width="10" x="150" y="180" /><rect fill="black" height="10" width="10" x="170" y="180" /><rect fill="black" height="10" width="10" x="210" y="180" /><rect fill="black" height="10" width="10" x="10" y="190" /><rect fill="black" height="10" width="10" x="20" y="190" /><rect fill="black" height="10" width="10" x="30" y="190" /><rect fill="black" height="10" width="10" x="40" y="190" /><rect fill="black" height="10" width="10" x="50" y="190" /><rect fill="black" height="10" width="10" x="60" y="190" /><rect fill="black" height="10" width="10" x="70" y="190" /><rect fill="black" height="10" width="10" x="110" y="190" /><rect fill="black" height="10" width="10" x="120" y="190" /><rect fill="black" height="10" width="10" x="170" y="190" /><rect fill="black" height="10" width="10" x="190" y="190" /><rect fill="black" height="10" width="10" x="210" y="190" /><rect fill="black" height="10" width="10" x="250" y="190" /><rect fill="black" height="10" width="10" x="10" y="200" /><rect fill="black" height="10" width="10" x="70" y="200" /><rect fill="black" height="10" width="10" x="130" y="200" /><rect fill="black" height="10" width="10" x="140" y="200" /><rect fill="black" height="10" width="10" x="160" y="200" /><rect fill="black" height="10" width="10" x="170" y="200" /><rect fill="black" height="10" width="10" x="210" y="200" /><rect fill="black" height="10" width="10" x="240" y="200" /><rect fill="black" height="10" width="10" x="10" y="210" /><rect fill="black" height="10" width="10" x="30" y="210" /><rect fill="black" height="10" width="10" x="40" y="210" /><rect fill="black" height="10" width="10" x="50" y="210" /><rect fill="black" height="10" width="10" x="70" y="210" /><rect fill="black" height="10" width="10" x="100" y="210" /><rect fill="black" height="10" width="10" x="110" y="210" /><rect fill="black" height="10" width="10" x="130" y="210" /><rect fill="black" height="10" width="10" x="150" y="210" /><rect fill="black" height="10" width="10" x="160" y="210" /><rect fill="black" height="10" width="10" x="170" y="210" /><rect fill="black" height="10" width="10" x="180" y="210" /><rect fill="black" height="10" width="10" x="190" y="210" /><rect fill="black" height="10" width="10" x="200" y="210" /><rect fill="black" height="10" width="10" x="210" y="210" /><rect fill="black" height="10" width="10" x="230" y="210" /><rect fill="black" height="10" width="10" x="250" y="210" /><rect fill="black" height="10" width="10" x="10" y="220" /><rect fill="black" height="10" width="10" x="30" y="220" /><rect fill="black" height="10" width="10" x="40" y="220" /><rect fill="black" height="10" width="10" x="50" y="220" /><rect fill="black" height="10" width="10" x="70" y="220" /><rect fill="black" height="10" width="10" x="100" y="220" /><rect fill="black" height="10" width="10" x="110" y="220" /><rect fill="black" height="10" width="10" x="150" y="220" /><rect fill="black" height="10" width="10" x="170" y="220" /><rect fill="black" height="10" width="10" x="180" y="220" /><rect fill="black" height="10" width="10" x="190" y="220" /><rect fill="black" height="10" width="10" x="240" y="220" /><rect fill="black" height="10" width="10" x="250" y="220" /><rect fill="black" height="10" width="10" x="10" y="230" /><rect fill="black" height="10" width="10" x="30" y="230" /><rect fill="black" height="10" width="10" x="40" y="230" /><rect fill="black" height="10" width="10" x="50" y="230" /><rect fill="black" height="10" width="10" x="70" y="230" /><rect fill="black" height="10" width="10" x="100" y="230" /><rect fill="black" height="10" width="10" x="110" y="230" /><rect fill="black" height="10" width="10" x="120" y="230" /><rect fill="black" height="10" width="10" x="130" y="230" /><rect fill="black" height="10" width="10" x="160" y="230" /><rect fill="black" height="10" width="10" x="220" y="230" /><rect fill="black" height="10" width="10" x="230" y="230" /><rect fill="black" height="10" width="10" x="250" y="230" /><rect fill="black" height="10" width="10" x="10" y="240" /><rect fill="black" height="10" width="10" x="70" y="240" /><rect fill="black" height="10" width="10" x="100" y="240" /><rect fill="black" height="10" width="10" x="120" y="240" /><rect fill="black" height="10" width="10" x="150" y="240" /><rect fill="black" height="10" width="10" x="160" y="240" /><rect fill="black" height="10" width="10" x="170" y="240" /><rect fill="black" height="10" width="10" x="180" y="240" /><rect fill="black" height="10" width="10" x="200" y="240" /><rect fill="black" height="10" width="10" x="210" y="240" /><rect fill="black" height="10" width="10" x="250" y="240" /><rect fill="black" height="10" width="10" x="10" y="250" /><rect fill="black" height="10" width="10" x="20" y="250" /><rect fill="black" height="10" width="10" x="30" y="250" /><rect fill="black" height="10" width="10" x="40" y="250" /><rect fill="black" height="10" width="10" x="50" y="250" /><rect fill="black" height="10" width="10" x="60" y="250" /><rect fill="black" height="10" width="10" x="70" y="250" /><rect fill="black" height="10" width="10" x="90" y="250" /><rect fill="black" height="10" width="10" x="100" y="250" /><rect fill="black" height="10" width="10" x="110" y="250" /><rect fill="black" height="10" width="10" x="140" y="250" /><rect fill="black" height="10" width="10" x="150" y="250" /><rect fill="black" height="10" width="10" x="170" y="250" /><rect fill="black" height="10" width="10" x="190" y="250" /><rect fill="black" height="10" width="10" x="220" y="250" /><rect fill="black" height="10" width="10" x="250" y="250" /></svg>