<svg width="110" height="111" viewBox="0 0 110 111" fill="none" xmlns="http://www.w3.org/2000/svg">
<ellipse cx="55" cy="55.4561" rx="55" ry="55.4561" fill="url(#paint0_linear_58_435)"/>
<path fill-rule="evenodd" clip-rule="evenodd" d="M76.2041 48.2652H70.1077V33.2991C70.1077 32.803 69.8938 32.3273 69.5127 31.9765C69.1317 31.6255 68.6147 31.4285 68.0757 31.4285H35.5623C35.0231 31.4285 34.5063 31.6255 34.1253 31.9765C33.7443 32.3273 33.53 32.803 33.53 33.2991V74.4558C33.53 74.9519 33.7443 75.4276 34.1253 75.7784C34.5063 76.1294 35.0231 76.3264 35.5623 76.3264H72.1403C73.7568 76.3264 75.3075 75.7351 76.4509 74.6825C77.5943 73.6302 78.2366 72.2027 78.2366 70.7142V50.1359C78.2366 49.6398 78.0223 49.1641 77.6412 48.8133C77.2602 48.4622 76.7434 48.2652 76.2043 48.2652H76.2041ZM59.7039 72.5845H37.5943V35.1704H66.0441V72.5845H59.7039ZM73.1561 72.334C73.7848 71.9998 74.1722 71.3822 74.1722 70.7139V52.0068H70.1079V70.7139C70.1079 71.3822 70.4954 71.9998 71.1241 72.334C71.7528 72.6682 72.5274 72.6682 73.1561 72.334Z" fill="white"/>
<path d="M46.5638 60.0178C45.7808 60.8102 44.5116 60.8102 43.7291 60.0178C42.9462 59.225 42.9462 57.9397 43.7291 57.1473C48.0341 52.7874 55.0145 52.7874 59.3197 57.1473C60.1026 57.9397 60.1026 59.2249 59.3197 60.0178C58.5372 60.8102 57.268 60.8102 56.485 60.0178C53.7453 57.243 49.3034 57.243 46.5639 60.0178H46.5638Z" fill="white" stroke="#9B1E26" stroke-width="0.3"/>
<path d="M46.3833 49.3876C44.8401 49.3876 43.589 48.1313 43.589 46.5815C43.589 45.0318 44.8401 43.7754 46.3833 43.7754C47.9266 43.7754 49.1773 45.0318 49.1773 46.5815C49.1773 48.1313 47.9265 49.3876 46.3833 49.3876Z" fill="white" stroke="#9B1E26" stroke-width="0.3"/>
<path d="M56.4423 49.3876C54.8991 49.3876 53.6479 48.1313 53.6479 46.5815C53.6479 45.0318 54.8991 43.7754 56.4423 43.7754C57.9856 43.7754 59.2363 45.0318 59.2363 46.5815C59.2363 48.1313 57.9855 49.3876 56.4423 49.3876Z" fill="white" stroke="#9B1E26" stroke-width="0.3"/>
<defs>
<linearGradient id="paint0_linear_58_435" x1="-53.9437" y1="54.3911" x2="54.8347" y2="162.275" gradientUnits="userSpaceOnUse">
<stop stop-color="#9B1E26"/>
<stop offset="1" stop-color="#56070C"/>
</linearGradient>
</defs>
</svg>
