<?xml version="1.0" encoding="utf-8"?>
<!-- Generator: Adobe Illustrator 16.0.0, SVG Export Plug-In . SVG Version: 6.00 Build 0)  -->
<!DOCTYPE svg PUBLIC "-//W3C//DTD SVG 1.1//EN" "http://www.w3.org/Graphics/SVG/1.1/DTD/svg11.dtd">
<svg version="1.1" id="Layer_1" xmlns="http://www.w3.org/2000/svg" xmlns:xlink="http://www.w3.org/1999/xlink" x="0px" y="0px"
	 width="33px" height="10px" viewBox="61.5 0 33 10" enable-background="new 61.5 0 33 10" xml:space="preserve">
<g id="Group_1171287448">
	<g id="Group_1171287304">
		
			<linearGradient id="Vector_1_" gradientUnits="userSpaceOnUse" x1="73.2021" y1="-11.0293" x2="85.2546" y2="-28.4808" gradientTransform="matrix(1 0 0 -1 8.3999 -13.9004)">
			<stop  offset="0.025" style="stop-color:#C3A779"/>
			<stop  offset="0.2" style="stop-color:#F8F2DC"/>
			<stop  offset="0.355" style="stop-color:#F9F4DE"/>
			<stop  offset="0.71" style="stop-color:#AC8F63"/>
			<stop  offset="0.85" style="stop-color:#D2B397"/>
		</linearGradient>
		<path id="Vector" fill="url(#Vector_1_)" d="M93.119,4.986c1.219,0,1.84-1.516,0.984-2.404c-0.414-0.444-1.011-0.392-1.4,0.13
			l-1.504,2.064l-3.837-3.972c-0.907-0.941-2.386-1.045-3.423-0.235l-5.652,4.442l5.652,4.443c1.037,0.811,2.489,0.705,3.423-0.235
			l3.837-3.972l1.504,2.065c0.39,0.521,0.986,0.574,1.4,0.131c0.855-0.889,0.234-2.405-0.984-2.405V4.986z"/>
		
			<linearGradient id="Vector_2_1_" gradientUnits="userSpaceOnUse" x1="56.2075" y1="-11.5947" x2="68.1765" y2="-29.0083" gradientTransform="matrix(1 0 0 -1 8.3999 -13.9004)">
			<stop  offset="0.025" style="stop-color:#C3A779"/>
			<stop  offset="0.2" style="stop-color:#F8F2DC"/>
			<stop  offset="0.355" style="stop-color:#F9F4DE"/>
			<stop  offset="0.71" style="stop-color:#AC8F63"/>
			<stop  offset="0.85" style="stop-color:#D2B397"/>
		</linearGradient>
		<path id="Vector_2" fill="url(#Vector_2_1_)" d="M69.261,0.78l-3.578,3.711l-1.867-1.934c-0.415-0.444-1.011-0.392-1.4,0.13
			c-0.674,0.941-0.026,2.274,1.115,2.274c-1.141,0-1.815,1.333-1.115,2.273c0.389,0.522,0.985,0.575,1.4,0.13l1.867-1.933
			l3.578,3.71c0.908,0.941,2.386,1.046,3.423,0.236l5.652-4.443l-5.652-4.39C71.646-0.265,70.194-0.161,69.261,0.78z"/>
	</g>
</g>
</svg>
