<svg width="17" height="17" viewBox="0 0 17 17" fill="none" xmlns="http://www.w3.org/2000/svg">
<g id="Group 1171280815">
<g id="Clip path group">
<mask id="mask0_21_222" style="mask-type:luminance" maskUnits="userSpaceOnUse" x="0" y="0" width="17" height="17">
<g id="clip0_1560_28">
<path id="Vector" d="M16.6338 0H0.366211V16.2676H16.6338V0Z" fill="white"/>
</g>
</mask>
<g mask="url(#mask0_21_222)">
<g id="Group">
<g id="Mask group">
<mask id="mask1_21_222" style="mask-type:luminance" maskUnits="userSpaceOnUse" x="0" y="0" width="17" height="16">
<g id="Group_2">
<path id="Vector_2" d="M16.4158 0.813477H0.366211V15.5464H16.4158V0.813477Z" fill="white"/>
</g>
</mask>
<g mask="url(#mask1_21_222)">
<g id="Group_3">
<path id="Vector_3" d="M11.1672 7.71257C9.35779 7.02916 8.13205 5.80654 7.4505 4.00081C6.77273 5.79776 5.55137 7.02477 3.7375 7.71006C4.61527 8.03109 5.37019 8.49503 6.01158 9.13581C6.65612 9.77976 7.1276 10.5334 7.44737 11.4274C7.51069 11.2701 7.55835 11.1466 7.60977 11.025C7.70694 10.7942 7.81855 10.5697 7.94645 10.3541C8.05744 10.1678 8.23235 10.1114 8.39411 10.2074C8.55214 10.3007 8.59663 10.477 8.49255 10.6569C8.01606 11.4845 7.77279 12.3742 7.76275 13.3291C7.76087 13.5298 7.62543 13.6664 7.4455 13.6639C7.26115 13.6614 7.13951 13.5235 7.13577 13.3053C7.11695 12.1817 6.7978 11.1523 6.13006 10.2475C5.08489 8.82982 3.67105 8.09189 1.90984 8.02418C1.87849 8.02292 1.84714 8.02418 1.81579 8.0223C1.62456 8.01101 1.49352 7.88185 1.49414 7.70693C1.49477 7.532 1.62644 7.39968 1.81893 7.39594C2.23775 7.38778 2.65156 7.34202 3.05973 7.24358C5.17519 6.73446 6.78215 4.96323 7.08058 2.81017C7.11192 2.58257 7.13199 2.35373 7.13577 2.12362C7.13951 1.89289 7.25928 1.75307 7.44863 1.75244C7.63859 1.75182 7.75649 1.89226 7.76462 2.12174C7.84049 4.14504 8.75028 5.678 10.4902 6.70878C11.2406 7.15331 12.067 7.36021 12.9372 7.39217C12.9893 7.39407 13.042 7.39217 13.094 7.39594C13.2752 7.40846 13.4031 7.53701 13.405 7.70506C13.4069 7.87933 13.2752 8.01727 13.0852 8.02105C12.7135 8.0273 12.346 8.0643 11.9818 8.1408C11.4413 8.25492 10.9322 8.44989 10.4519 8.72204C10.4023 8.75027 10.3516 8.78093 10.2977 8.79663C10.1547 8.83925 9.99483 8.76149 9.93212 8.62549C9.86315 8.47624 9.91268 8.31381 10.0675 8.22043C10.3585 8.04486 10.6657 7.90192 10.9829 7.78029C11.0312 7.76147 11.0801 7.74391 11.166 7.71193L11.1672 7.71257Z" fill="#353535"/>
<path id="Vector_4" d="M13.2775 15.5465C13.0932 15.544 12.9728 15.4067 12.9672 15.1884C12.9528 14.6562 12.7953 14.1715 12.4744 13.7464C11.9847 13.0987 11.3295 12.7601 10.5175 12.7276C10.2874 12.7181 10.1476 12.6021 10.147 12.4128C10.147 12.2228 10.2861 12.1043 10.5162 12.0974C11.8586 12.0604 12.9289 10.9921 12.9659 9.65218C12.9722 9.41834 13.0869 9.28096 13.2763 9.27787C13.4707 9.27534 13.5891 9.41703 13.5955 9.6591C13.6299 10.9851 14.7083 12.0623 16.0369 12.0968C16.2764 12.1031 16.42 12.2253 16.415 12.4197C16.41 12.6078 16.2707 12.7207 16.0369 12.7269C14.709 12.7608 13.6305 13.8373 13.5955 15.164C13.5891 15.4067 13.4707 15.5484 13.2769 15.5458L13.2775 15.5465ZM14.7328 12.4109C14.0788 12.0792 13.6142 11.6027 13.2788 10.9638C12.949 11.6134 12.4725 12.078 11.8336 12.414C12.4825 12.7445 12.9484 13.2197 13.2819 13.8587C13.6155 13.2135 14.0863 12.7426 14.7328 12.4109Z" fill="#353535"/>
<path id="Vector_5" d="M4.75389 3.00364C4.7564 3.19299 4.61908 3.31212 4.38774 3.32277C3.72249 3.35349 3.16135 3.77483 2.95381 4.4012C2.90428 4.55041 2.88045 4.70464 2.87418 4.86203C2.86603 5.06768 2.73939 5.20123 2.56007 5.20059C2.38075 5.20059 2.25724 5.06704 2.24595 4.86139C2.19705 3.97862 1.59012 3.37356 0.701683 3.32089C0.497285 3.3096 0.363738 3.18295 0.366246 3.00364C0.368754 2.82432 0.501047 2.70394 0.709205 2.69328C1.58072 2.64625 2.20143 2.02742 2.24532 1.16093C2.25597 0.945241 2.38326 0.809188 2.56759 0.81358C2.74691 0.817964 2.86415 0.95026 2.87481 1.1603C2.9187 2.02617 3.54005 2.64625 4.41092 2.69265C4.61847 2.70394 4.75136 2.82432 4.75389 3.00364ZM2.57449 2.28888C2.53185 2.28699 2.52307 2.31583 2.50991 2.3359C2.34626 2.58168 2.14249 2.78795 1.89609 2.95034C1.8196 3.00113 1.83904 3.02621 1.90173 3.06822C2.14249 3.22936 2.34502 3.42998 2.50301 3.67326C2.55318 3.75101 2.5795 3.72843 2.62088 3.66636C2.78202 3.4256 2.9814 3.22246 3.22593 3.06508C3.30242 3.01555 3.28361 2.98859 3.22028 2.94658C2.97826 2.78733 2.77889 2.58418 2.6165 2.34405C2.6027 2.32336 2.5864 2.30454 2.57449 2.28888Z" fill="#353535"/>
<path id="Vector_6" d="M9.4249 9.3741C9.42359 9.54784 9.27507 9.6901 9.10198 9.68449C8.93459 9.67887 8.79851 9.53653 8.79981 9.36914C8.80103 9.19548 8.94964 9.05314 9.12264 9.05875C9.29012 9.06437 9.42677 9.20671 9.4249 9.3741Z" fill="#353535"/>
</g>
</g>
</g>
</g>
</g>
</g>
</g>
</svg>
